<svg xmlns="http://www.w3.org/2000/svg" width="800" height="1200" viewBox="0 0 800 1200">
      <path d="M360 900 L350 1120" stroke="#c99570" stroke-width="56" fill="none" stroke-linecap="round"/><path d="M440 900 L450 1120" stroke="#c99570" stroke-width="56" fill="none" stroke-linecap="round"/><ellipse cx="345" cy="1140" rx="54" ry="24" fill="#5a4634"/><ellipse cx="455" cy="1140" rx="54" ry="24" fill="#5a4634"/>
      <path d="M320 440 L480 440 L500 900 L300 900 Z" fill="#e3b58f"/>
      <path d="M312 470 Q250 640 300 760" stroke="#e3b58f" stroke-width="52" fill="none" stroke-linecap="round"/><circle cx="304" cy="770" r="34" fill="#e3b58f"/><path d="M488 470 Q550 640 500 760" stroke="#e3b58f" stroke-width="52" fill="none" stroke-linecap="round"/><circle cx="496" cy="770" r="34" fill="#e3b58f"/>
      <rect x="372" y="390" width="56" height="70" fill="#e3b58f"/>
      <circle cx="400" cy="300" r="130" fill="#e3b58f"/>
      <path d="M270 300 a130 130 0 0 1 260 0 Z" fill="#d8d8de"/>
      <circle cx="400" cy="170" r="60" fill="#d8d8de"/>
      <circle cx="400" cy="170" r="42" fill="#b9b9c2"/>
    </svg>